#!OML:ASF F:\VICON\USERDATA\INSTALL\Justin_Nancy\Justin_Nancy.ASF
:FULLY-SPECIFIED
:DEGREES
237
root 1.39077 17.5674 3.71643 -0.0952769 -1.20584 1.38724
lowerback 4.29986 0.371005 -3.54226
upperback -0.527519 0.344567 1.28839
thorax -2.9864 0.241447 3.29646
lowerneck -16.8256 -3.27589 -9.6503
upperneck 24.5405 -3.29332 5.27915
head 10.9699 -1.76505 3.06996
rclavicle -5.18704e-015 -7.95139e-016
rhumerus -35.1831 -24.617 -73.4044
rradius 23.4882
rwrist 13.6873
rhand -18.5395 14.5564
rfingers 7.12502
rthumb 7.74961 -15.2816
lclavicle -5.18704e-015 -7.95139e-016
lhumerus -27.5856 10.3866 84.4421
lradius 30.4955
lwrist -5.08486
lhand -16.4761 28.5892
lfingers 7.12502
lthumb 9.74084 58.3439
rfemur -15.5066 -2.28149 19.6703
rtibia 51.5668
rfoot -17.9753 -9.319
rtoes -8.24496
lfemur -15.4251 0.132209 -24.5313
ltibia 27.0449
lfoot -8.36847 -1.60654
ltoes 4.87688
238
root 1.38371 17.557 3.77233 -0.0283924 -1.27955 1.56895
lowerback 4.42651 0.327798 -3.8403
upperback -0.569082 0.265322 1.26944
thorax -3.09593 0.209868 3.45062
lowerneck -16.9107 -3.20507 -9.64577
upperneck 24.5529 -3.20247 5.33938
head 10.9836 -1.71523 3.10472
rclavicle 6.74004e-015 9.14409e-015
rhumerus -35.2487 -24.267 -73.6156
rradius 23.5809
rwrist 13.3378
rhand -18.3707 15.2061
rfingers 7.12502
rthumb 7.91256 -14.6258
lclavicle 6.74004e-015 9.14409e-015
lhumerus -27.4829 9.80145 84.4221
lradius 31.1303
lwrist -4.54482
lhand -16.5647 28.2022
lfingers 7.12502
lthumb 9.65534 57.9609
rfemur -15.9724 -1.92804 19.4511
rtibia 50.701
rfoot -18.7488 -8.98645
rtoes -8.91991
lfemur -15.4714 0.00739949 -24.7278
ltibia 27.4494
lfoot -8.53852 -1.28461
ltoes 5.31796
239
root 1.37155 17.5524 3.82115 0.00506822 -1.05268 1.56976
lowerback 4.66648 0.15756 -4.00774
upperback -0.642488 0.019446 1.29366
thorax -3.28581 0.0961497 3.58895
lowerneck -16.667 -3.04919 -9.61546
upperneck 24.3887 -3.05064 5.48259
head 10.8618 -1.62674 3.17233
rclavicle 1.18028e-016 -4.37326e-015
rhumerus -35.3574 -23.931 -73.8584
rradius 23.7143
rwrist 13.1527
rhand -18.1285 15.2461
rfingers 7.12502
rthumb 8.14635 -14.5769
lclavicle 1.18028e-016 -4.37326e-015
lhumerus -27.4568 9.34199 84.2846
lradius 31.8018
lwrist -4.19378
lhand -16.0009 29.3485
lfingers 7.12502
lthumb 10.1993 59.0813
rfemur -16.3271 -1.84335 19.4847
rtibia 49.7358
rfoot -19.2049 -9.00347
rtoes -8.61343
lfemur -15.5063 -0.169807 -24.724
ltibia 27.814
lfoot -8.69914 -1.20128
ltoes 5.33374
240
root 1.35134 17.5554 3.87662 -0.0497465 -0.947311 1.31192
lowerback 4.83571 0.0247982 -4.01942
upperback -0.605898 -0.159402 1.45159
thorax -3.3265 0.00907181 3.77408
lowerneck -16.5411 -3.01109 -9.60745
upperneck 24.2082 -3.01 5.49131
head 10.7666 -1.60555 3.17677
rclavicle 4.96962e-017 -8.74653e-015
rhumerus -35.3738 -23.9433 -73.8341
rradius 23.585
rwrist 13.7722
rhand -18.216 14.8669
rfingers 7.12502
rthumb 8.06189 -14.9593
lclavicle 4.96962e-017 -8.74653e-015
lhumerus -27.4157 8.96018 84.2228
lradius 32.4838
lwrist -3.82402
lhand -15.9574 30.1886
lfingers 7.12502
lthumb 10.2412 59.9193
rfemur -16.4756 -1.50922 19.8838
rtibia 48.6909
rfoot -19.3983 -9.35045
rtoes -8.48398
lfemur -15.4177 -0.301774 -24.3807
ltibia 28.1627
lfoot -9.01844 -1.04783
ltoes 4.37051
241
root 1.33998 17.5478 3.93602 -0.0421945 -0.948961 1.34715
lowerback 4.85334 -0.00852317 -4.12648
upperback -0.557708 -0.210704 1.44331
thorax -3.28144 -0.0165645 3.82976
lowerneck -16.6402 -3.04877 -9.59404
upperneck 24.1663 -3.06655 5.52918
head 10.7755 -1.62378 3.1791
rclavicle 9.93923e-016 -2.78299e-015
rhumerus -35.5166 -23.6909 -73.9773
rradius 23.7671
rwrist 13.8084
rhand -18.3386 14.2015
rfingers 7.12502
rthumb 7.94358 -15.6292
lclavicle 9.93923e-016 -2.78299e-015
lhumerus -27.2444 8.53142 84.1863
lradius 32.9838
lwrist -3.68408
lhand -16.3364 28.142
lfingers 7.12502
lthumb 9.8756 57.8904
rfemur -16.6097 -1.27792 19.8824
rtibia 47.6069
rfoot -19.5632 -9.76718
rtoes -9.50108
lfemur -15.3845 -0.248788 -24.4097
ltibia 28.5297
lfoot -9.42352 -0.964921
ltoes 3.93149
242
root 1.33208 17.5308 3.9908 -0.0160546 -0.97959 1.53292
lowerback 4.89318 -0.0435365 -4.35289
upperback -0.492551 -0.273222 1.4
thorax -3.22985 -0.0465536 3.91739
lowerneck -16.7727 -3.05795 -9.76939
upperneck 24.061 -3.07748 5.76942
head 10.7698 -1.61283 3.29289
rclavicle 4.88265e-015 1.19271e-015
rhumerus -35.4601 -23.3742 -74.2365
rradius 23.9932
rwrist 13.6745
rhand -18.2191 14.2906
rfingers 7.12502
rthumb 8.0589 -15.5358
lclavicle 4.88265e-015 1.19271e-015
lhumerus -26.9304 8.10248 84.1769
lradius 33.4266
lwrist -3.35793
lhand -16.7066 26.0872
lfingers 7.12502
lthumb 9.51849 55.8522
rfemur -16.7853 -1.07063 19.6833
rtibia 46.4778
rfoot -19.8647 -10.2039
rtoes -10.6509
lfemur -15.4015 -0.292107 -24.6276
ltibia 28.8935
lfoot -9.72407 -0.753557
ltoes 3.23435
243
root 1.316 17.5207 4.04492 0.00932391 -0.96363 1.3871
lowerback 4.96951 -0.108448 -4.30178
upperback -0.505546 -0.358777 1.44187
thorax -3.27773 -0.0882501 3.93936
lowerneck -16.5793 -3.06065 -9.86216
upperneck 23.862 -3.10176 5.88937
head 10.6645 -1.618 3.34538
rclavicle 7.19973e-015 -7.95139e-016
rhumerus -35.5562 -23.0705 -74.4376
rradius 24.1836
rwrist 13.4944
rhand -17.8773 15.4881
rfingers 7.12502
rthumb 8.38879 -14.3253
lclavicle 7.19973e-015 -7.95139e-016
lhumerus -26.8693 7.63793 84.0712
lradius 33.9482
lwrist -3.30419
lhand -16.8409 25.4099
lfingers 7.12502
lthumb 9.38888 55.1808
rfemur -16.9231 -0.596112 19.8917
rtibia 45.3022
rfoot -20.122 -10.5904
rtoes -9.45074
lfemur -15.4595 -0.351457 -24.4228
ltibia 29.2659
lfoot -9.92209 -0.634308
ltoes 3.00791
244
root 1.30272 17.5155 4.10306 0.026087 -0.833703 1.32053
lowerback 4.89324 -0.21175 -4.35839
upperback -0.474918 -0.494458 1.50332
thorax -3.18857 -0.157199 4.04452
lowerneck -16.3403 -3.07521 -9.83146
upperneck 23.6558 -3.13404 5.82798
head 10.5443 -1.63772 3.30944
rclavicle 1.10698e-014 0
rhumerus -35.6402 -22.5919 -74.665
rradius 24.4803
rwrist 13.267
rhand -17.7954 16.3982
rfingers 7.12502
rthumb 8.46778 -13.412
lclavicle 1.10698e-014 0
lhumerus -26.8154 7.26597 83.9787
lradius 34.4727
lwrist -3.3374
lhand -17.1782 23.9926
lfingers 7.12502
lthumb 9.06335 53.7779
rfemur -16.9533 -0.33405 19.9953
rtibia 44.0833
rfoot -20.3305 -10.8133
rtoes -7.88791
lfemur -15.4691 -0.288292 -24.3059
ltibia 29.6259
lfoot -10.2701 -0.738306
ltoes 3.63528
245
root 1.29091 17.5054 4.1648 -0.0318327 -0.657615 1.35891
lowerback 4.70032 -0.337253 -4.43057
upperback -0.312171 -0.657063 1.46099
thorax -2.89441 -0.248344 4.04881
lowerneck -16.3457 -3.06531 -9.75923
upperneck 23.5655 -3.15523 5.89505
head 10.5133 -1.63175 3.31688
rclavicle -7.26806e-015 8.34896e-015
rhumerus -35.4777 -22.2596 -75.0999
rradius 24.81
rwrist 12.9487
rhand -17.6078 16.3819
rfingers 7.12502
rthumb 8.64879 -13.4209
lclavicle -7.26806e-015 8.34896e-015
lhumerus -26.4373 6.70701 83.8064
lradius 34.8441
lwrist -3.096
lhand -17.4586 22.6438
lfingers 7.12502
lthumb 8.79277 52.4407
rfemur -16.8205 -0.306798 19.9987
rtibia 42.8185
rfoot -20.2875 -11.2119
rtoes -8.35145
lfemur -15.3416 -0.275313 -24.328
ltibia 29.97
lfoot -10.7433 -0.811622
ltoes 3.69466
246
root 1.27547 17.4933 4.22305 -0.0128064 -0.389732 1.39929
lowerback 4.63486 -0.518412 -4.54426
upperback -0.291626 -0.902335 1.44806
thorax -2.80971 -0.371726 4.11501
lowerneck -16.1868 -3.06429 -9.79205
upperneck 23.413 -3.17374 5.95832
head 10.4302 -1.63616 3.34016
rclavicle 4.34841e-016 -4.37326e-015
rhumerus -35.4968 -21.8685 -75.4359
rradius 25.183
rwrist 12.563
rhand -17.1042 15.9844
rfingers 7.12502
rthumb 9.13476 -13.7977
lclavicle 4.34841e-016 -4.37326e-015
lhumerus -26.261 6.28464 83.6271
lradius 35.2862
lwrist -2.86852
lhand -16.9098 24.0999
lfingers 7.12502
lthumb 9.32234 53.8738
rfemur -16.6694 -0.280886 20.0055
rtibia 41.5318
rfoot -20.133 -11.699
rtoes -9.26981
lfemur -15.3227 -0.296102 -24.3519
ltibia 30.3179
lfoot -11.1362 -0.92592
ltoes 3.11893
247
root 1.26036 17.4821 4.27589 0.0848447 -0.125037 1.39698
lowerback 4.59087 -0.659741 -4.63789
upperback -0.338405 -1.09367 1.48727
thorax -2.81108 -0.464506 4.22121
lowerneck -15.8754 -3.07389 -9.82562
upperneck 23.137 -3.18871 5.90728
head 10.2718 -1.65267 3.32057
rclavicle 1.39522e-014 1.51076e-014
rhumerus -35.6189 -21.6034 -75.606
rradius 25.5582
rwrist 12.2066
rhand -16.8441 15.5658
rfingers 7.12502
rthumb 9.38574 -14.2052
lclavicle 1.39522e-014 1.51076e-014
lhumerus -26.1499 5.86056 83.5796
lradius 35.7696
lwrist -2.54702
lhand -15.8242 26.5037
lfingers 7.12502
lthumb 10.3697 56.228
rfemur -16.5723 -0.185536 20.039
rtibia 40.2459
rfoot -20.0346 -11.8709
rtoes -10.4172
lfemur -15.427 -0.35231 -24.3137
ltibia 30.6822
lfoot -11.493 -1.0158
ltoes 2.98288
248
root 1.24284 17.4717 4.32767 0.148847 -0.0718097 1.20869
lowerback 4.4836 -0.694359 -4.57088
upperback -0.272539 -1.12738 1.59951
thorax -2.67792 -0.486636 4.29924
lowerneck -15.9575 -3.08753 -9.98348
upperneck 23.1063 -3.17136 5.97092
head 10.2792 -1.64955 3.37173
rclavicle 1.06847e-014 3.57812e-015
rhumerus -35.5339 -21.6064 -75.6653
rradius 25.6684
rwrist 12.1321
rhand -17.1081 15.7684
rfingers 7.12502
rthumb 9.13105 -14.014
lclavicle 1.06847e-014 3.57812e-015
lhumerus -25.7969 5.45297 83.6261
lradius 36.0396
lwrist -2.93542
lhand -15.5409 27.391
lfingers 7.12502
lthumb 10.643 57.1015
rfemur -16.4595 0.130899 20.306
rtibia 38.921
rfoot -19.8204 -11.9173
rtoes -12.0652
lfemur -15.4997 -0.390035 -24.0456
ltibia 31.0543
lfoot -11.9373 -0.984832
ltoes 3.40909
249
root 1.22624 17.4582 4.38145 0.175156 -0.035451 1.20522
lowerback 4.38144 -0.752441 -4.6391
upperback -0.230956 -1.20284 1.62176
thorax -2.56753 -0.527187 4.36292
lowerneck -16.0606 -3.14264 -9.98428
upperneck 23.1672 -3.21726 5.88243
head 10.3244 -1.68056 3.3342
rclavicle -1.49089e-014 1.19271e-015
rhumerus -35.5188 -21.2357 -75.8669
rradius 25.81
rwrist 11.741
rhand -17.283 16.265
rfingers 7.12502
rthumb 8.96231 -13.5247
lclavicle -1.49089e-014 1.19271e-015
lhumerus -25.5547 5.06634 83.5702
lradius 36.1022
lwrist -3.94827
lhand -16.8869 26.6957
lfingers 7.12502
lthumb 9.34444 56.4686
rfemur -16.2546 0.528141 20.3271
rtibia 37.6238
rfoot -19.5553 -11.6544
rtoes -12.4518
lfemur -15.4899 -0.341406 -23.9749
ltibia 31.3921
lfoot -12.325 -0.968886
ltoes 3.58235
250
root 1.21106 17.451 4.4389 0.197873 0.0952647 1.20578
lowerback 4.22353 -0.853627 -4.67488
upperback -0.297296 -1.33342 1.62593
thorax -2.53227 -0.591506 4.39264
lowerneck -15.6949 -3.20149 -10.0328
upperneck 23.1103 -3.32709 5.8887
head 10.2452 -1.73946 3.32957
rclavicle 1.69712e-014 5.96354e-015
rhumerus -35.6744 -20.8931 -76.0286
rradius 26.0741
rwrist 11.2164
rhand -17.0963 16.2549
rfingers 7.12502
rthumb 9.14239 -13.5269
lclavicle 1.69712e-014 5.96354e-015
lhumerus -25.3799 4.88972 83.412
lradius 35.9224
lwrist -4.69373
lhand -17.8794 26.5468
lfingers 7.12502
lthumb 8.38668 56.3603
rfemur -16.0283 0.882089 20.3024
rtibia 36.4224
rfoot -19.3436 -11.3219
rtoes -11.2775
lfemur -15.4313 -0.301592 -23.9281
ltibia 31.6471
lfoot -12.6764 -1.01364
ltoes 3.56115
